<svg id="Layer_1" data-name="Layer 1" xmlns="http://www.w3.org/2000/svg" viewBox="0 0 216 217"><defs><style>.cls-1{fill:#3f7b7d;}.cls-2{fill:#a1a1aa;}</style></defs><title>1</title><rect class="cls-1" width="216" height="217" rx="12" ry="12"/><path class="cls-2" d="M57.3,21.3A37.3,37.3,0,0,1,84.77,32.68a37.47,37.47,0,0,1,11.31,27.4V148.5A37.29,37.29,0,0,1,84.71,176a37.45,37.45,0,0,1-27.4,11.31A37.07,37.07,0,0,1,29.9,175.9a37.56,37.56,0,0,1-11.25-27.4V60.08A37.29,37.29,0,0,1,30,32.61,37.31,37.31,0,0,1,57.3,21.3ZM70.62,59.57a13.9,13.9,0,0,0-14-14,13.67,13.67,0,0,0-10,4.07,13.35,13.35,0,0,0-4.14,9.89v88.67a13.35,13.35,0,0,0,4.14,9.89,13.68,13.68,0,0,0,10,4.07,13.9,13.9,0,0,0,14-14V59.57Z"/><path class="cls-2" d="M111.82,62.44A37.57,37.57,0,0,1,123.06,35a36.78,36.78,0,0,1,27.14-11.37H188.6V185.75H150.21A36.72,36.72,0,0,1,123,174.38a37.53,37.53,0,0,1-11.18-27.27V62.44Zm52.35-14.61H149.43a13,13,0,0,0-9.82,4.2,13.85,13.85,0,0,0-4,9.89v84.8a13.68,13.68,0,0,0,4.07,10,13.21,13.21,0,0,0,9.76,4.14h14.74v-113Z"/></svg>