<svg id="Layer_1" data-name="Layer 1" xmlns="http://www.w3.org/2000/svg" viewBox="0 0 216 216"><defs><style>.cls-1{fill:#647d5d;}.cls-2{fill:#a2a2a2;}</style></defs><title>2</title><rect class="cls-1" width="216" height="216" rx="12" ry="12"/><path class="cls-2" d="M176.66,115.32c1.34,2,1.73,3.6-.35,5.63-1,1-.9,3.42-0.82,5.18,0.09,2.1,1,4.18,1,6.27,0,4.68-1.91,7.1-6.48,7.92-4.2.75-8.48,1-12.72,1.59a23,23,0,0,0-3.82.72c-9.59,2.93-11.59,6.51-10.44,16.67a34.07,34.07,0,0,1-.88,11.52c-0.88,3.69-1.1,7.1.93,10.27s4.33,5.92,6.56,8.83c3.31,4.31,6.79,8.5,10,12.91,3,4.22,5.74,8.66,8.71,13.18H43.55a14.49,14.49,0,0,1,.64-2.91c5.22-11.68,10.2-23.48,15.81-35,6-12.26,12.9-24.06,18.79-36.36,4.3-9,5.69-18.8,6-28.75a7,7,0,0,0-2.51-5.89A57.3,57.3,0,0,1,67.08,45.75C71.63,33,81.8,25.94,93.61,21.59c21.94-8.08,42.91-3.9,62.4,7.88,9.19,5.56,13.93,14.81,15.9,25.23,1.15,6.05,2.29,12.26,2.15,18.37-0.18,8.32,4.06,14.12,9,19.85,0.46,0.54,1.06,1,1.53,1.49,3.44,3.93,2.9,7.56-1.86,9.56-3.13,1.32-5,2.4-3.41,6.32,0.51,1.26-1,3.33-1.55,5h-1.1Zm-4-1.92c4.51,0,5.41-1.73,4-5.41-0.79-2-.14-4,2.45-4.69A14.76,14.76,0,0,0,182,102c3-1.59,3.39-3.25,1.22-5.88-0.6-.73-1.42-1.29-2-2-4-5-8.38-9.81-9-16.61-0.55-5.91-.77-11.86-1.52-17.75-1.47-11.5-5.52-22.15-15.71-28.37-19.35-11.81-40.18-15.84-62-7.27C82.68,28.18,73.47,34.48,69.46,45.56c-7.37,20.36-3.29,44.64,14.6,60.25a7.58,7.58,0,0,1,2.84,6.46c-0.19,9.58-1.2,19.15-5.22,27.83-5.93,12.79-12.89,25.1-19.16,37.74-5.21,10.51-10.09,21.18-15,31.81a23.58,23.58,0,0,0-1.1,4.16H164.08c-1.64-2.49-3.21-4.59-4.48-6.86-3.45-6.14-7.18-12-12.58-16.71-2.26-2-3.88-4.79-5.49-7.41-2.49-4.05-2.8-8.28-1.31-13,1-3.05.79-6.51,0.88-9.79,0.07-2.72-.63-5.52-0.2-8.16,0.37-2.32,1.23-5.43,2.93-6.48a52.44,52.44,0,0,1,12.85-5.51c3.59-1,7.53-.83,11.27-1.47,5.77-1,8-4.3,5.92-9.82-1.52-4.14-1.23-7.55,1.78-10.68Z"/></svg>