<?xml version="1.0" encoding="utf-8"?>
<!-- Generator: Adobe Illustrator 19.1.0, SVG Export Plug-In . SVG Version: 6.00 Build 0)  -->
<svg version="1.1" id="Layer_1" xmlns="http://www.w3.org/2000/svg" xmlns:xlink="http://www.w3.org/1999/xlink" x="0px" y="0px"
	 viewBox="0 0 1399.4 907.5" style="enable-background:new 0 0 1399.4 907.5;" xml:space="preserve">
<style type="text/css">
	.st0{fill:none;}
	.st1{fill:none;stroke:#000000;stroke-miterlimit:10;}
	.st2{font-family:'Corbel';}
	.st3{font-size:30px;}
	.st4{fill:#A1A1AA;}
	.st5{fill:#872237;}
	.st6{font-size:18.8987px;}
</style>
<rect x="94.4" y="356.3" class="st0" width="15.8" height="0"/>
<line class="st1" x1="193.4" y1="816.9" x2="193.4" y2="140.9"/>
<text transform="matrix(0.9797 0 0 1 1182.6754 859.8881)" class="st2 st3">2015</text>
<text transform="matrix(0.9797 0 0 1 846.2194 861.8882)" class="st2 st3">2000</text>
<text transform="matrix(0.9797 0 0 1 392.9655 861.8876)" class="st2 st3">1980</text>
<text transform="matrix(0.9797 0 0 1 277.7379 861.8885)" class="st2 st3">1975</text>
<g>
	<rect x="1090.4" y="108.1" class="st4" width="40.1" height="37.8"/>
	<rect x="1090.4" y="155.2" class="st5" width="40.1" height="37.8"/>
	<text transform="matrix(1.0614 0 0 1 1138.3104 133.8361)" class="st2 st6">Total Arrests</text>
	<text transform="matrix(1.0614 0 0 1 1138.3104 174.134)" class="st2 st6">Total  Drug Arrests</text>
</g>
<text transform="matrix(1.1027 0 0 1 64.8683 704.3853)" class="st2 st3">100,000</text>
<text transform="matrix(1.1027 0 0 1 62.8009 578.4917)" class="st2 st3">200,000</text>
<text transform="matrix(1.1027 0 0 1 64.7067 452.5981)" class="st2 st3">300,000</text>
<text transform="matrix(1.1027 0 0 1 62.6071 326.7046)" class="st2 st3">400,000</text>
<text transform="matrix(1.1027 0 0 1 63.8185 200.811)" class="st2 st3">500,000</text>
<text transform="matrix(0.9797 0 0 1 507.4606 861.8873)" class="st2 st3">1985</text>
<text transform="matrix(0.9797 0 0 1 619.8219 861.8871)" class="st2 st3">1990</text>
<text transform="matrix(0.9797 0 0 1 733.317 860.8867)" class="st2 st3">1995</text>
<text transform="matrix(0.9797 0 0 1 957.7145 860.8867)" class="st2 st3">2005</text>
<text transform="matrix(0.9797 0 0 1 1074.1803 861.8867)" class="st2 st3">2010</text>
<polygon class="st4" points="1209.9,814.9 193.9,814.9 193.9,595.4 216.9,601.4 239.7,620.8 262.4,650.7 285.1,633.3 307.7,628.6 
	330.3,602.6 352.9,581.9 375.5,593.5 398.1,610.6 420.6,628.5 443.2,593.4 465.8,540.1 488.4,511.2 511,475.7 533.6,451 
	556.2,408.9 578.8,385.7 601.4,372.8 624,369.6 646.5,398.8 669.1,417.6 691.7,437 714.3,428.9 736.9,344 759.5,315.8 782.1,322.7 
	804.7,298.4 827.3,256.5 849.8,310.7 872.4,256.4 895,351 917.6,355.9 940.2,385.9 962.8,385.5 985.4,384.2 1008,359.4 
	1030.6,299.6 1053.1,306.7 1075.7,300.7 1098.3,306.1 1120.9,316.1 1143.5,352.8 1166.1,385.3 1188,396.2 1209.9,451.4 "/>
<polygon class="st5" points="1209.9,816.9 193.9,816.9 193.9,738.3 216.9,754.9 239.8,777.5 262.5,789.6 285.1,787.7 307.8,786.4 
	330.4,778.6 353,777.9 375.6,784.9 398.3,785.1 420.9,785.2 443.5,772.6 466.1,759.3 488.7,749.6 511.3,731.1 533.9,722 
	556.5,702.8 579.1,686.5 601.8,674.7 624.4,664.1 647,686.3 669.6,705 692.2,711.6 714.8,707.4 737.4,674.3 760,657.7 782.6,653.6 
	805.3,646.3 827.9,610.9 850.5,627.3 873.1,592.9 895.7,640.1 918.3,643.1 940.9,665.4 963.5,675 986.1,670.5 1008.8,658.9 
	1031.4,634.9 1054,641.1 1076.6,640.3 1099.2,645.9 1121.8,648.2 1144.4,670.8 1167,692.7 1188.5,699.3 1209.9,724.6 "/>
<g>
	<line class="st1" x1="306.4" y1="841.9" x2="306.4" y2="825.9"/>
	<line class="st1" x1="420.4" y1="840.9" x2="420.4" y2="824.9"/>
	<line class="st1" x1="534.4" y1="841.9" x2="534.4" y2="825.9"/>
	<line class="st1" x1="647.4" y1="840.9" x2="647.4" y2="824.9"/>
	<line class="st1" x1="760.4" y1="840.9" x2="760.4" y2="824.9"/>
	<line class="st1" x1="874.4" y1="839.9" x2="874.4" y2="823.9"/>
	<line class="st1" x1="987.4" y1="839.9" x2="987.4" y2="823.9"/>
	<line class="st1" x1="1101.4" y1="840.9" x2="1101.4" y2="824.9"/>
	<line class="st1" x1="1208.4" y1="840.9" x2="1208.4" y2="824.9"/>
</g>
</svg>
