<?xml version="1.0" encoding="utf-8"?>
<!-- Generator: Adobe Illustrator 19.1.0, SVG Export Plug-In . SVG Version: 6.00 Build 0)  -->
<svg version="1.1" id="Layer_1" xmlns="http://www.w3.org/2000/svg" xmlns:xlink="http://www.w3.org/1999/xlink" x="0px" y="0px"
	 viewBox="0 0 1399.4 907.5" style="enable-background:new 0 0 1399.4 907.5;" xml:space="preserve">
<style type="text/css">
	.st0{fill:none;}
	.st1{fill:none;stroke:#000000;stroke-miterlimit:10;}
	.st2{font-family:'Corbel';}
	.st3{font-size:30px;}
	.st4{fill:#A1A1AA;}
	.st5{fill:#872237;}
	.st6{font-size:18.8987px;}
</style>
<rect x="94.4" y="356.3" class="st0" width="15.8" height="0"/>
<line class="st1" x1="295.4" y1="833.9" x2="295.4" y2="816.9"/>
<line class="st1" x1="613.4" y1="834.9" x2="613.4" y2="817.9"/>
<line class="st1" x1="921.4" y1="834.9" x2="921.4" y2="817.9"/>
<line class="st1" x1="193.4" y1="818.9" x2="193.4" y2="142.9"/>
<text transform="matrix(0.9797 0 0 1 1191.6803 861.8887)" class="st2 st3">2010</text>
<text transform="matrix(0.9797 0 0 1 892.4821 861.8885)" class="st2 st3">2007</text>
<text transform="matrix(0.9797 0 0 1 583.1759 861.8885)" class="st2 st3">2004</text>
<text transform="matrix(0.9797 0 0 1 265.2194 861.8885)" class="st2 st3">2000</text>
<line class="st1" x1="1227.4" y1="836.9" x2="1227.4" y2="819.9"/>
<g>
	<rect x="1090.4" y="108.1" class="st4" width="40.1" height="37.8"/>
	<rect x="1090.4" y="155.2" class="st5" width="40.1" height="37.8"/>
	<text transform="matrix(1.0614 0 0 1 1138.3104 133.8361)" class="st2 st6">Total Arrests</text>
	<text transform="matrix(1.0614 0 0 1 1138.3104 174.134)" class="st2 st6">Total  Drug Arrests</text>
</g>
<text transform="matrix(1.1027 0 0 1 64.8683 704.3853)" class="st2 st3">100,000</text>
<text transform="matrix(1.1027 0 0 1 62.8009 578.4917)" class="st2 st3">200,000</text>
<text transform="matrix(1.1027 0 0 1 64.7067 452.5981)" class="st2 st3">300,000</text>
<text transform="matrix(1.1027 0 0 1 62.6071 326.7046)" class="st2 st3">400,000</text>
<text transform="matrix(1.1027 0 0 1 63.8185 200.811)" class="st2 st3">500,000</text>
<g>
	<polygon class="st4" points="1229.9,820.9 193.9,820.9 193.9,309.1 297.8,383.9 401.6,398.1 505.4,427.7 609.1,429.3 712.8,419.7 
		816.6,397.2 920.3,346 1024,352 1126.9,342.7 1229.9,346.2 	"/>
</g>
<g>
	<polygon class="st5" points="1229.9,818.9 193.9,818.9 193.9,664.5 297.7,697.5 401.5,699.7 505.2,715.2 608.9,722 712.6,718.8 
		816.3,710.7 919.9,693.9 1023.6,698.3 1126.7,697.7 1229.9,701.6 	"/>
</g>
</svg>
