<?xml version="1.0" encoding="utf-8"?>
<!-- Generator: Adobe Illustrator 19.1.0, SVG Export Plug-In . SVG Version: 6.00 Build 0)  -->
<svg version="1.1" id="Layer_1" xmlns="http://www.w3.org/2000/svg" xmlns:xlink="http://www.w3.org/1999/xlink" x="0px" y="0px"
	 viewBox="0 0 1399.4 907.5" style="enable-background:new 0 0 1399.4 907.5;" xml:space="preserve">
<style type="text/css">
	.st0{fill:none;}
	.st1{fill:none;stroke:#000000;stroke-miterlimit:10;}
	.st2{font-family:'Corbel';}
	.st3{font-size:30px;}
	.st4{fill:#A1A1AA;}
	.st5{fill:#872237;}
	.st6{font-size:18.8987px;}
</style>
<rect x="94.4" y="356.3" class="st0" width="15.8" height="0"/>
<line class="st1" x1="254.4" y1="833.9" x2="254.4" y2="816.9"/>
<line class="st1" x1="572.4" y1="834.9" x2="572.4" y2="817.9"/>
<line class="st1" x1="888.4" y1="831.9" x2="888.4" y2="814.9"/>
<text transform="matrix(0.9797 0 0 1 1151.4655 861.8887)" class="st2 st3">1980</text>
<text transform="matrix(0.9797 0 0 1 861.5055 861.8885)" class="st2 st3">1977</text>
<text transform="matrix(0.9797 0 0 1 544.1993 861.8885)" class="st2 st3">1974</text>
<text transform="matrix(0.9797 0 0 1 227.2042 861.8885)" class="st2 st3">1971</text>
<line class="st1" x1="1189.4" y1="836.9" x2="1189.4" y2="819.9"/>
<g>
	<rect x="1135.4" y="112.7" class="st4" width="40.1" height="37.8"/>
	<rect x="1135.4" y="159.9" class="st5" width="40.1" height="37.8"/>
	<text transform="matrix(1.0614 0 0 1 1183.3104 138.5022)" class="st2 st6">Total Arrests</text>
	<text transform="matrix(1.0614 0 0 1 1183.3104 178.8)" class="st2 st6">Total  Drug Arrests</text>
</g>
<text transform="matrix(1.1023 0 0 1 36.6768 700.3853)" class="st2 st3">30,000</text>
<text transform="matrix(1.1023 0 0 1 34.3194 574.4917)" class="st2 st3">60,000</text>
<text transform="matrix(1.1023 0 0 1 34.3194 448.5981)" class="st2 st3">90,000</text>
<text transform="matrix(1.1023 0 0 1 19.9488 322.7046)" class="st2 st3">120,000</text>
<text transform="matrix(1.1023 0 0 1 20.9659 196.811)" class="st2 st3">150,000</text>
<line class="st1" x1="148.4" y1="808.9" x2="148.4" y2="178.9"/>
<polygon class="st4" points="1193.9,807.9 149.9,807.9 149.9,304.4 254.4,318.3 358.9,363.6 463.4,433.4 567.8,392.8 672.2,381.7 
	776.6,321.2 881,272.7 985.3,299.9 1089.6,339.7 1193.9,381.5 "/>
<g>
	<polygon class="st5" points="1192.9,807.9 148.9,807.9 148.9,633.1 253.4,671.8 357.9,724.6 462.4,752.8 566.8,748.3 671.2,745.3 
		775.6,727.1 880,725.5 984.3,741.8 1088.6,742.3 1192.9,742.6 	"/>
</g>
</svg>
