<?xml version="1.0" encoding="utf-8"?>
<!-- Generator: Adobe Illustrator 19.1.0, SVG Export Plug-In . SVG Version: 6.00 Build 0)  -->
<svg version="1.1" id="Layer_1" xmlns="http://www.w3.org/2000/svg" xmlns:xlink="http://www.w3.org/1999/xlink" x="0px" y="0px"
	 viewBox="0 0 1399.4 907.5" style="enable-background:new 0 0 1399.4 907.5;" xml:space="preserve">
<style type="text/css">
	.st0{fill:none;}
	.st1{fill:none;stroke:#000000;stroke-miterlimit:10;}
	.st2{font-family:'Corbel';}
	.st3{font-size:30px;}
	.st4{fill:#872237;}
	.st5{fill:#A1A1AA;}
	.st6{font-size:18.8987px;}
</style>
<rect x="94.4" y="356.3" class="st0" width="15.8" height="0"/>
<line class="st1" x1="295.4" y1="833.9" x2="295.4" y2="816.9"/>
<line class="st1" x1="613.4" y1="834.9" x2="613.4" y2="817.9"/>
<line class="st1" x1="932.4" y1="831.9" x2="932.4" y2="814.9"/>
<line class="st1" x1="193.4" y1="810.9" x2="193.4" y2="134.9"/>
<text transform="matrix(0.9797 0 0 1 1191.7194 861.8887)" class="st2 st3">2000</text>
<text transform="matrix(0.9797 0 0 1 904.0846 861.8885)" class="st2 st3">1997</text>
<text transform="matrix(0.9797 0 0 1 583.7789 861.8885)" class="st2 st3">1994</text>
<text transform="matrix(0.9797 0 0 1 266.7833 861.8885)" class="st2 st3">1991</text>
<g>
	<polygon class="st4" points="1233.9,810.9 194.9,810.9 194.9,782.1 298.9,769.4 402.9,756.2 506.9,746.4 610.9,728 714.9,718.8 
		818.9,699.7 922.9,683.3 1026.8,671.5 1130.4,661 1233.9,683.1 	"/>
</g>
<line class="st1" x1="1230.4" y1="836.9" x2="1230.4" y2="819.9"/>
<g>
	<rect x="1090.4" y="108.1" class="st5" width="40.1" height="37.8"/>
	<rect x="1090.4" y="155.2" class="st4" width="40.1" height="37.8"/>
	<text transform="matrix(1.0614 0 0 1 1138.3104 133.8361)" class="st2 st6">Total Arrests</text>
	<text transform="matrix(1.0614 0 0 1 1138.3104 174.134)" class="st2 st6">Total  Drug Arrests</text>
</g>
<text transform="matrix(1.1027 0 0 1 64.8683 704.3853)" class="st2 st3">100,000</text>
<text transform="matrix(1.1027 0 0 1 62.8009 578.4917)" class="st2 st3">200,000</text>
<text transform="matrix(1.1027 0 0 1 64.7067 452.5981)" class="st2 st3">300,000</text>
<text transform="matrix(1.1027 0 0 1 62.6071 326.7046)" class="st2 st3">400,000</text>
<text transform="matrix(1.1027 0 0 1 63.8185 200.811)" class="st2 st3">500,000</text>
<g>
	<polygon class="st5" points="1232.9,815.9 194.9,815.9 194.9,440.5 298.9,460.3 402.9,476.3 506.8,469 610.7,387.6 714.5,367.2 
		818.4,366.6 922.2,340.7 1026,307.8 1129.5,355.6 1232.9,304.1 	"/>
</g>
<g>
	<polygon class="st4" points="1232.9,813.9 193.9,813.9 193.9,724.8 298,737.9 402.1,742.5 506.1,739.6 610.1,716.4 714,704.8 
		818,701.9 921.9,696.8 1025.8,672.1 1129.4,683.5 1232.9,659.5 	"/>
</g>
</svg>
